<svg width="68" height="20" viewBox="0 0 68 20" fill="none" xmlns="http://www.w3.org/2000/svg">
<path fill-rule="evenodd" clip-rule="evenodd" d="M66.0555 16C65.1658 16 64.4444 16.8954 64.4444 18C64.4444 19.1046 65.1658 20 66.0555 20C66.9453 20 67.6667 19.1046 67.6667 18C67.6667 16.8954 66.9453 16 66.0555 16ZM64.4444 2C64.4444 0.895432 65.1658 0 66.0555 0C66.9453 0 67.6667 0.895432 67.6667 2C67.6667 3.10457 66.9453 4 66.0555 4C65.1658 4 64.4444 3.10457 64.4444 2ZM51.5555 2C51.5555 0.895432 52.2769 0 53.1667 0C54.0564 0 54.7778 0.895432 54.7778 2C54.7778 3.10457 54.0564 4 53.1667 4C52.2769 4 51.5555 3.10457 51.5555 2ZM40.2782 0C39.3884 0 38.6671 0.89543 38.6671 2C38.6671 3.10457 39.3884 4 40.2782 4C41.168 4 41.8893 3.10457 41.8893 2C41.8893 0.89543 41.168 0 40.2782 0ZM25.7774 2C25.7774 0.895428 26.4988 -1.90735e-06 27.3886 -1.90735e-06C28.2783 -1.90735e-06 28.9997 0.895428 28.9997 2C28.9997 3.10457 28.2783 4 27.3886 4C26.4988 4 25.7774 3.10457 25.7774 2ZM14.5 -1.90735e-06C13.6102 -1.90735e-06 12.8889 0.895428 12.8889 2C12.8889 3.10457 13.6102 4 14.5 4C15.3898 4 16.1111 3.10457 16.1111 2C16.1111 0.895428 15.3898 -1.90735e-06 14.5 -1.90735e-06ZM-7.62939e-06 2C-7.62939e-06 0.895428 0.721313 -3.8147e-06 1.6111 -3.8147e-06C2.50089 -3.8147e-06 3.22221 0.895428 3.22221 2C3.22221 3.10457 2.50089 4 1.6111 4C0.721313 4 -7.62939e-06 3.10457 -7.62939e-06 2ZM51.5556 18C51.5556 16.8954 52.2769 16 53.1667 16C54.0565 16 54.7778 16.8954 54.7778 18C54.7778 19.1046 54.0565 20 53.1667 20C52.2769 20 51.5556 19.1046 51.5556 18ZM40.2782 16C39.3884 16 38.6671 16.8954 38.6671 18C38.6671 19.1046 39.3884 20 40.2782 20C41.168 20 41.8893 19.1046 41.8893 18C41.8893 16.8954 41.168 16 40.2782 16ZM25.7774 18C25.7774 16.8954 26.4988 16 27.3886 16C28.2783 16 28.9997 16.8954 28.9997 18C28.9997 19.1046 28.2783 20 27.3886 20C26.4988 20 25.7774 19.1046 25.7774 18ZM14.5001 16C13.6103 16 12.8889 16.8954 12.8889 18C12.8889 19.1046 13.6103 20 14.5001 20C15.3899 20 16.1112 19.1046 16.1112 18C16.1112 16.8954 15.3899 16 14.5001 16ZM5.34058e-05 18C5.34058e-05 16.8954 0.721375 16 1.61116 16C2.50095 16 3.22227 16.8954 3.22227 18C3.22227 19.1046 2.50095 20 1.61116 20C0.721375 20 5.34058e-05 19.1046 5.34058e-05 18Z" fill="#B4BDFC"/>
</svg>
