<svg width="493" height="231" viewBox="0 0 493 231" fill="none" xmlns="http://www.w3.org/2000/svg">
<path d="M0.300081 214.466L18.9872 230.083L34.6045 211.396L15.9175 195.779L0.300081 214.466ZM461.039 23.3447L492.225 34.2927L488.521 0.0508704L460.398 17.4139L461.039 23.3447ZM17.7182 215.902C248.014 195.294 316.628 153.442 349.417 112.551C357.559 102.398 363.43 92.3753 368.955 83.0382C374.51 73.6512 379.686 65.0103 386.539 57.217C400.063 41.8364 420.476 29.3709 464.096 23.012L463.236 17.109C418.687 23.6032 396.791 36.5229 382.059 53.2779C374.783 61.5525 369.344 70.6669 363.821 80.0002C358.269 89.3834 352.6 99.046 344.763 108.819C313.635 147.638 247.311 189.368 17.1865 209.96L17.7182 215.902Z" fill="#011868" fill-opacity="0.09"/>
</svg>
