<svg width="49" height="49" viewBox="0 0 49 49" fill="none" xmlns="http://www.w3.org/2000/svg">
<rect width="49" height="49" rx="24.5" fill="#340168"/>
<path d="M24.9988 27.7502L26.0488 28.8002L24.0988 30.7502H30.2488V32.2502H24.0988L26.0488 34.2003L24.9988 35.2502L21.2488 31.5002L24.9988 27.7502ZM18.4453 29.4925L24.4378 23.5L25.4991 24.5605L19.5066 30.553L18.4453 29.4925Z" fill="white"/>
<path d="M30.2516 28.5H28.7516V24.75C28.7516 24.525 28.8266 24.375 28.9766 24.225L32.0516 21.15C33.3266 19.875 34.0016 18.15 34.0016 16.35V15H32.5766C30.7766 15 29.0516 15.675 27.7766 16.95L24.7016 20.025C24.6266 20.175 24.4766 20.25 24.2516 20.25H18.6266L16.6766 22.725L20.6516 23.325L20.4266 24.825L15.1766 24.075C14.8766 24 14.6516 23.85 14.5766 23.625C14.5016 23.4 14.5016 23.1 14.6516 22.875L17.6516 19.125C17.8016 18.825 18.0266 18.75 18.2516 18.75H23.9516L26.8016 15.9C28.3016 14.325 30.4016 13.5 32.5766 13.5H34.0016C34.8266 13.5 35.5016 14.175 35.5016 15V16.425C35.5016 18.6 34.6766 20.7 33.1016 22.275L30.2516 25.05V28.5Z" fill="white"/>
</svg>
