<svg width="49" height="49" viewBox="0 0 49 49" fill="none" xmlns="http://www.w3.org/2000/svg">
<rect width="49" height="49" rx="24.5" fill="#340168"/>
<path d="M34.45 23.2271H33.06C32.8783 21.3366 32.0445 19.5683 30.7016 18.2254C29.3587 16.8825 27.5904 16.0487 25.7 15.8671V14.4771C25.7 14.2781 25.621 14.0874 25.4803 13.9467C25.3397 13.8061 25.1489 13.7271 24.95 13.7271C24.7511 13.7271 24.5603 13.8061 24.4197 13.9467C24.279 14.0874 24.2 14.2781 24.2 14.4771V15.8671C22.3178 16.0578 20.5602 16.8958 19.2271 18.2381C17.8939 19.5803 17.0679 21.3436 16.89 23.2271H15.5C15.4015 23.2271 15.304 23.2464 15.213 23.2841C15.122 23.3218 15.0393 23.3771 14.9697 23.4467C14.9 23.5164 14.8448 23.599 14.8071 23.69C14.7694 23.781 14.75 23.8786 14.75 23.9771C14.75 24.0755 14.7694 24.1731 14.8071 24.2641C14.8448 24.3551 14.9 24.4377 14.9697 24.5074C15.0393 24.577 15.122 24.6323 15.213 24.67C15.304 24.7077 15.4015 24.7271 15.5 24.7271H16.89C17.0717 26.6175 17.9055 28.3858 19.2484 29.7287C20.5913 31.0716 22.3596 31.9054 24.25 32.0871V33.4771C24.25 33.676 24.329 33.8667 24.4697 34.0074C24.6103 34.148 24.8011 34.2271 25 34.2271C25.1989 34.2271 25.3897 34.148 25.5303 34.0074C25.671 33.8667 25.75 33.676 25.75 33.4771V32.0871C27.6397 31.9035 29.407 31.0691 30.7496 29.7266C32.0921 28.3841 32.9265 26.6168 33.11 24.7271H34.5C34.5985 24.7271 34.696 24.7077 34.787 24.67C34.878 24.6323 34.9607 24.577 35.0303 24.5074C35.1 24.4377 35.1552 24.3551 35.1929 24.2641C35.2306 24.1731 35.25 24.0755 35.25 23.9771C35.25 23.8786 35.2306 23.781 35.1929 23.69C35.1552 23.599 35.1 23.5164 35.0303 23.4467C34.9607 23.3771 34.878 23.3218 34.787 23.2841C34.696 23.2464 34.5985 23.2271 34.5 23.2271H34.45ZM24.95 30.6171C23.6367 30.6171 22.353 30.2276 21.261 29.498C20.1691 28.7684 19.318 27.7314 18.8154 26.5181C18.3129 25.3048 18.1814 23.9697 18.4376 22.6817C18.6938 21.3936 19.3262 20.2105 20.2548 19.2819C21.1834 18.3532 22.3666 17.7208 23.6546 17.4646C24.9426 17.2084 26.2777 17.3399 27.491 17.8425C28.7043 18.3451 29.7413 19.1961 30.471 20.2881C31.2006 21.38 31.59 22.6638 31.59 23.9771C31.59 25.739 30.8908 27.4289 29.6458 28.6758C28.4008 29.9226 26.712 30.6244 24.95 30.6271V30.6171Z" fill="white"/>
<path d="M29.48 23.987C29.48 24.8854 29.2135 25.7635 28.7142 26.5104C28.2149 27.2572 27.5053 27.8391 26.6751 28.1824C25.8449 28.5257 24.9316 28.615 24.0506 28.4391C23.1697 28.2631 22.3608 27.8297 21.7262 27.1937C21.0917 26.5578 20.6601 25.7479 20.486 24.8666C20.312 23.9853 20.4033 23.0721 20.7485 22.2427C21.0936 21.4133 21.6771 20.705 22.425 20.2073C23.1729 19.7096 24.0517 19.4451 24.95 19.447C25.5458 19.447 26.1356 19.5645 26.6859 19.7928C27.2362 20.0211 27.736 20.3557 28.1568 20.7774C28.5775 21.1991 28.911 21.6996 29.1381 22.2504C29.3651 22.8012 29.4813 23.3913 29.48 23.987Z" fill="white"/>
</svg>
