<svg width="49" height="49" viewBox="0 0 49 49" fill="none" xmlns="http://www.w3.org/2000/svg">
<rect width="49" height="49" rx="24.5" fill="#340168"/>
<path d="M33.1705 18.7503H31.3095L26.7435 23.3143C26.9008 23.7151 26.9152 24.1578 26.7845 24.568C26.6537 24.9782 26.3857 25.3308 26.0255 25.5667C25.6653 25.8025 25.2348 25.9071 24.8066 25.8629C24.3783 25.8187 23.9783 25.6283 23.6739 25.3239C23.3694 25.0195 23.1791 24.6195 23.1349 24.1912C23.0907 23.763 23.1953 23.3325 23.4311 22.9723C23.6669 22.6121 24.0196 22.3441 24.4298 22.2133C24.84 22.0826 25.2827 22.097 25.6835 22.2543L30.2485 17.6893V15.8283C30.2486 15.5793 30.3475 15.3404 30.5235 15.1643L32.2535 13.4343C32.2855 13.402 32.3257 13.379 32.3697 13.3679C32.4138 13.3568 32.4601 13.358 32.5035 13.3713C32.5925 13.3973 32.6585 13.4713 32.6765 13.5623L33.1365 15.8633L35.4365 16.3233C35.5265 16.3413 35.6005 16.4073 35.6265 16.4963C35.6396 16.5395 35.6408 16.5855 35.6299 16.6293C35.619 16.6732 35.5964 16.7132 35.5645 16.7453L33.8335 18.4753C33.7465 18.5624 33.6432 18.6316 33.5294 18.6788C33.4156 18.726 33.2937 18.7503 33.1705 18.7503Z" fill="white"/>
<path d="M15.625 24C15.625 26.4864 16.6127 28.871 18.3709 30.6291C20.129 32.3873 22.5136 33.375 25 33.375C26.2311 33.375 27.4502 33.1325 28.5877 32.6614C29.7251 32.1902 30.7586 31.4997 31.6291 30.6291C32.4997 29.7586 33.1902 28.7251 33.6614 27.5877C34.1325 26.4502 34.375 25.2311 34.375 24C34.375 23.102 34.249 22.234 34.014 21.413C33.9673 21.2245 33.9955 21.0252 34.0928 20.8571C34.19 20.689 34.3487 20.5651 34.5353 20.5116C34.722 20.4581 34.9222 20.4791 35.0937 20.5702C35.2653 20.6613 35.3948 20.8154 35.455 21C35.729 21.954 35.875 22.96 35.875 24C35.875 30.006 31.006 34.875 25 34.875C18.994 34.875 14.125 30.006 14.125 24C14.125 17.994 18.994 13.125 25 13.125C26.015 13.124 27.024 13.265 28 13.544C28.0952 13.5707 28.1841 13.6159 28.2617 13.6771C28.3393 13.7383 28.4041 13.8142 28.4523 13.9005C28.5005 13.9868 28.5311 14.0818 28.5425 14.18C28.5538 14.2782 28.5457 14.3776 28.5184 14.4726C28.4912 14.5677 28.4455 14.6564 28.3839 14.7336C28.3223 14.8109 28.246 14.8753 28.1595 14.923C28.0729 14.9707 27.9778 15.0008 27.8795 15.0116C27.7813 15.0224 27.6819 15.0137 27.587 14.986C26.7457 14.7457 25.8749 14.6242 25 14.625C22.5136 14.625 20.129 15.6127 18.3709 17.3709C16.6127 19.129 15.625 21.5136 15.625 24Z" fill="white"/>
<path d="M20.1238 23.9998C20.1266 24.6621 20.2643 25.3169 20.5286 25.9242C20.7929 26.5315 21.1782 27.0786 21.661 27.532C22.1438 27.9855 22.7139 28.3357 23.3366 28.5615C23.9593 28.7872 24.6214 28.8836 25.2826 28.8449C25.9438 28.8062 26.5902 28.6331 27.1823 28.3363C27.7744 28.0394 28.2997 27.625 28.7263 27.1183C29.1529 26.6116 29.4717 26.0233 29.6633 25.3893C29.8549 24.7553 29.9153 24.0889 29.8408 23.4308C29.8198 23.2975 29.8352 23.161 29.8855 23.0358C29.9357 22.9106 30.0189 22.8013 30.1262 22.7195C30.2335 22.6377 30.361 22.5864 30.495 22.5712C30.6291 22.5559 30.7648 22.5772 30.8878 22.6328C31.1388 22.7448 31.3078 22.9838 31.3298 23.2578C31.485 24.573 31.2267 25.904 30.5907 27.0656C29.9546 28.2273 28.9725 29.1619 27.7807 29.7396C26.589 30.3174 25.2469 30.5095 23.941 30.2892C22.635 30.069 21.4301 29.4474 20.4938 28.5108C19.5577 27.5752 18.9359 26.3715 18.7147 25.0667C18.4935 23.7618 18.6838 22.4204 19.2593 21.2286C19.8348 20.0368 20.7668 19.0536 21.9263 18.4154C23.0857 17.7771 24.415 17.5155 25.7298 17.6668C25.8292 17.676 25.9257 17.705 26.0138 17.752C26.1018 17.799 26.1796 17.8632 26.2425 17.9406C26.3055 18.0181 26.3523 18.1074 26.3804 18.2032C26.4084 18.299 26.417 18.3994 26.4056 18.4986C26.3943 18.5978 26.3633 18.6937 26.3145 18.7807C26.2656 18.8678 26.1998 18.9442 26.1211 19.0055C26.0423 19.0668 25.952 19.1118 25.8557 19.1377C25.7593 19.1637 25.6587 19.1702 25.5598 19.1568C24.8768 19.0778 24.1848 19.1442 23.5293 19.3515C22.8738 19.5589 22.2696 19.9025 21.7562 20.3598C21.2429 20.8172 20.832 21.3779 20.5507 22.0052C20.2694 22.6325 20.1239 23.3123 20.1238 23.9998Z" fill="white"/>
</svg>
